<svg width="18" height="18" viewBox="0 0 18 18" fill="none" xmlns="http://www.w3.org/2000/svg">
<path d="M17.4 0.613387C17.2766 0.489783 17.1301 0.391719 16.9688 0.324811C16.8075 0.257902 16.6346 0.223462 16.46 0.223462C16.2854 0.223462 16.1125 0.257902 15.9512 0.324811C15.7899 0.391719 15.6433 0.489783 15.52 0.613387L8.99999 7.12005L2.47999 0.600054C2.35655 0.476611 2.21 0.378691 2.04872 0.311885C1.88743 0.245078 1.71457 0.210693 1.53999 0.210693C1.36542 0.210693 1.19255 0.245078 1.03127 0.311885C0.869983 0.378691 0.723435 0.476611 0.599993 0.600054C0.47655 0.723496 0.37863 0.870044 0.311824 1.03133C0.245017 1.19261 0.210632 1.36548 0.210632 1.54005C0.210632 1.71463 0.245017 1.88749 0.311824 2.04878C0.37863 2.21006 0.47655 2.35661 0.599993 2.48005L7.11999 9.00005L0.599993 15.5201C0.47655 15.6435 0.37863 15.79 0.311824 15.9513C0.245017 16.1126 0.210632 16.2855 0.210632 16.4601C0.210632 16.6346 0.245017 16.8075 0.311824 16.9688C0.37863 17.1301 0.47655 17.2766 0.599993 17.4001C0.723435 17.5235 0.869983 17.6214 1.03127 17.6882C1.19255 17.755 1.36542 17.7894 1.53999 17.7894C1.71457 17.7894 1.88743 17.755 2.04872 17.6882C2.21 17.6214 2.35655 17.5235 2.47999 17.4001L8.99999 10.8801L15.52 17.4001C15.6434 17.5235 15.79 17.6214 15.9513 17.6882C16.1126 17.755 16.2854 17.7894 16.46 17.7894C16.6346 17.7894 16.8074 17.755 16.9687 17.6882C17.13 17.6214 17.2765 17.5235 17.4 17.4001C17.5234 17.2766 17.6214 17.1301 17.6882 16.9688C17.755 16.8075 17.7894 16.6346 17.7894 16.4601C17.7894 16.2855 17.755 16.1126 17.6882 15.9513C17.6214 15.79 17.5234 15.6435 17.4 15.5201L10.88 9.00005L17.4 2.48005C17.9067 1.97339 17.9067 1.12005 17.4 0.613387Z" fill="white"/>
</svg>
